<svg xmlns="http://www.w3.org/2000/svg" viewBox="0 0 128 128" width="128" height="128">
  <defs>
    <linearGradient id="g1" x1="0%" y1="0%" x2="100%" y2="100%">
      <stop offset="0%" stop-color="#b8a9f0"/>
      <stop offset="100%" stop-color="#6b4fbb"/>
    </linearGradient>
    <linearGradient id="g2" x1="0%" y1="0%" x2="100%" y2="100%">
      <stop offset="0%" stop-color="#7c5fcf"/>
      <stop offset="100%" stop-color="#3b2d8b"/>
    </linearGradient>
    <linearGradient id="g3" x1="100%" y1="0%" x2="0%" y2="100%">
      <stop offset="0%" stop-color="#9580e0"/>
      <stop offset="100%" stop-color="#5039a0"/>
    </linearGradient>
  </defs>
  <!-- Background rounded rect -->
  <rect x="4" y="4" width="120" height="120" rx="20" ry="20" fill="#2d1b69"/>
  <!-- Stylized "B" / interlocking blocks reminiscent of build blocks -->
  <!-- Left vertical bar -->
  <rect x="28" y="24" width="18" height="80" rx="4" fill="url(#g1)"/>
  <!-- Top horizontal + curve -->
  <path d="M46 24 h26 a18 18 0 0 1 0 36 H46 z" fill="url(#g3)"/>
  <!-- Bottom horizontal + curve -->
  <path d="M46 68 h30 a18 18 0 0 1 0 36 H46 z" fill="url(#g2)"/>
  <!-- Binary dot accents -->
  <circle cx="58" cy="42" r="5" fill="#e0d8ff" opacity="0.9"/>
  <circle cx="62" cy="86" r="5" fill="#c4b5f7" opacity="0.9"/>
  <!-- Small log/list lines -->
  <rect x="50" y="38" width="16" height="2.5" rx="1" fill="#e0d8ff" opacity="0.5"/>
  <rect x="50" y="44" width="12" height="2.5" rx="1" fill="#e0d8ff" opacity="0.4"/>
  <rect x="54" y="82" width="16" height="2.5" rx="1" fill="#c4b5f7" opacity="0.5"/>
  <rect x="54" y="88" width="12" height="2.5" rx="1" fill="#c4b5f7" opacity="0.4"/>
</svg>
